<?xml version="1.0" encoding="utf-8"?>
<!-- Generator: Adobe Illustrator 21.0.2, SVG Export Plug-In . SVG Version: 6.00 Build 0)  -->
<svg version="1.1" id="Camada_1" xmlns="http://www.w3.org/2000/svg" xmlns:xlink="http://www.w3.org/1999/xlink" x="0px" y="0px"
	 viewBox="0 0 379 396" style="enable-background:new 0 0 379 396;" xml:space="preserve">
<style type="text/css">
	.st0{fill:#5A667D;}
	.st1{fill:#323333;}
	.st2{fill:#D3D4D5;}
	.st3{fill:#AEAFB2;}
	.st4{fill:#E7503B;}
	.st5{fill:#3C3C3C;}
	.st6{fill:#FFFFFF;}
</style>
<g>
	<ellipse class="st0" cx="190" cy="343.5" rx="189.5" ry="52"/>
	<g>
		<path id="capa" class="st1" d="M366.5,205.5c-12-15-64-43-177-42c-113-1-165,27-177,42s41.3,32.4,50,38c14,9,44,24,32,59
			s-27,36,6,45s65,13,89,13s56-4,89-13s18-10,6-45s18-50,32-59C325.2,237.9,378.5,220.5,366.5,205.5z"/>
		<g>
			<g>
				<g>
					<path id="rosto" class="st2" d="M327.5,118.5c-6.6-6.1-29.4,14-29.4,14c-2.7,1.7-5,4.9-6.7,9c-6.9-38.6-28.9-48.2-39.6-49
						c-14-1-29,12-37,20c-7.8,7.8-20.4,21.4-25.6,22c-5.2-0.6-17.8-14.2-25.6-22c-8-8-23-21-37-20c-10.6,0.8-32,10.1-39.3,46.9
						c-1.6-3.1-3.5-5.5-5.7-6.9c0,0-22.9-20.1-29.4-14c-2.2,2.1-2.6,7.1,0.4,17C62.9,169.3,68.8,193.4,78,205
						c0,14.1,4.3,30.2,13.5,45.5c8.9,14.8,20.7,26.2,33,33.3c-0.4,5.2-4.5,82.2,64.3,82.7h0.7c67.5-0.5,64.8-74.6,64.3-82.3
						c12.5-7,24.6-18.6,33.7-33.7c9-15,13.4-30.8,13.5-44.7c9.6-11.3,15.5-35.7,26.1-70.3C330.1,125.6,329.8,120.6,327.5,118.5z"/>
					<path id="sombra_rosto" class="st3" d="M298.1,132.5c-2.4,1.5-4.5,4.2-6.1,7.6l1.5,42.4c0,0,1,49-58,88c0,0,11.8,105.9-92,77.8
						c9.6,10.5,23.9,18,45.3,18.2h0.7c67.5-0.5,64.8-74.6,64.3-82.3c12.5-7,24.6-18.6,33.7-33.7c9-15,13.4-30.8,13.5-44.7
						c9.6-11.3,15.5-35.7,26.1-70.3c3-9.9,2.7-14.9,0.4-17C321,112.4,298.1,132.5,298.1,132.5z"/>
				</g>
				<g>
					<g>
						<g>
							<g>
								<path class="st3" d="M171.5,199.5c0,0,5,0,5,15s-2.1,60.3-4,36c-2-25-2-48-2-48L171.5,199.5z"/>
							</g>
							<g>
								<path class="st3" d="M207.5,200.5c0,0-5-1-5,14s2.1,60.3,4,36c2-25,2-48,2-48L207.5,200.5z"/>
							</g>
						</g>
						<g>
							<path class="st4" d="M146.5,181.5c-33-20-42-25-41-17s11,41,33,46s35-1,37-6S146.5,181.5,146.5,181.5z"/>
							<path class="st4" d="M233.5,181.5c33-20,42-25,41-17s-11,41-33,46s-35-1-37-6S233.5,181.5,233.5,181.5z"/>
						</g>
					</g>
					<g>
						<path class="st5" d="M197.7,276.5c-2.9,2-4.2,3-8,3c-3.8,0-4.5-1-7.4-3c-3-2-8-6-8-6s11.9,14.8,15.4,15c0,0,0,0,0,0
							c0.1,0,0.2,0,0.3,0c0.1,0,0.2,0,0.3,0c0,0,0,0,0,0c3.5-0.2,15.4-15,15.4-15S200.7,274.5,197.7,276.5z"/>
						<g>
							<path class="st5" d="M146.5,298.5c0,0,32.4,8.5,43.5,8.5s43.5-8.5,43.5-8.5s-32.5,14-44,14
								C178.2,312.5,146.5,298.5,146.5,298.5z"/>
							<g>
								<path class="st5" d="M164.5,304.5c0,0-1,12,3,16l4-14L164.5,304.5z"/>
								<path class="st5" d="M215,304.5c0,0,2,12-2,16l-5-14L215,304.5z"/>
							</g>
						</g>
					</g>
					<g>
						<circle class="st6" cx="99.5" cy="143.5" r="8"/>
						
							<ellipse transform="matrix(0.5744 -0.8186 0.8186 0.5744 -44.7173 146.994)" class="st6" cx="119" cy="116.5" rx="21" ry="10.5"/>
					</g>
				</g>
			</g>
			<path id="cabelo" class="st5" d="M85.5,184.5c-6-75,27-91,41-92s29,12,37,20c7.8,7.8,20.4,21.4,25.6,22
				c5.2-0.6,17.8-14.2,25.6-22c8-8,23-21,37-20s47,17,41,92c-0.3,3.5-0.6,6.8-1,10.1c21-41.9,19.2-109.1,18.2-144.1
				c-1-37-73-50-120-50l-0.2,0l-0.2,0c-47,0-119,13-120,50c-0.9,34.1-2.7,98.8,16.6,140.8C85.9,189.1,85.7,186.8,85.5,184.5z"/>
		</g>
	</g>
</g>
</svg>
